<?xml version="1.0" encoding="UTF-8" standalone="no"?>
<!-- Created with Inkscape (http://www.inkscape.org/) -->

<svg
   xmlns:dc="http://purl.org/dc/elements/1.1/"
   xmlns:cc="http://creativecommons.org/ns#"
   xmlns:rdf="http://www.w3.org/1999/02/22-rdf-syntax-ns#"
   xmlns:svg="http://www.w3.org/2000/svg"
   xmlns="http://www.w3.org/2000/svg"
   xmlns:sodipodi="http://sodipodi.sourceforge.net/DTD/sodipodi-0.dtd"
   xmlns:inkscape="http://www.inkscape.org/namespaces/inkscape"
   id="svg2"
   version="1.1"
   inkscape:version="0.47 r22583"
   width="294"
   height="92.43"
   xml:space="preserve"
   sodipodi:docname="finalbhartilogo.pdf"><metadata
     id="metadata8"><rdf:RDF><cc:Work
         rdf:about=""><dc:format>image/svg+xml</dc:format><dc:type
           rdf:resource="http://purl.org/dc/dcmitype/StillImage" /><dc:title></dc:title></cc:Work></rdf:RDF></metadata><defs
     id="defs6"><inkscape:perspective
       sodipodi:type="inkscape:persp3d"
       inkscape:vp_x="0 : 0.5 : 1"
       inkscape:vp_y="0 : 1000 : 0"
       inkscape:vp_z="1 : 0.5 : 1"
       inkscape:persp3d-origin="0.5 : 0.33333333 : 1"
       id="perspective10" /><clipPath
       clipPathUnits="userSpaceOnUse"
       id="clipPath20"><path
         d="M 0,3507.87 0,0 l 4960.63,0 0,3507.87 -4960.63,0 z"
         id="path22" /></clipPath></defs><sodipodi:namedview
     pagecolor="#ffffff"
     bordercolor="#666666"
     borderopacity="1"
     objecttolerance="10"
     gridtolerance="10"
     guidetolerance="10"
     inkscape:pageopacity="0"
     inkscape:pageshadow="2"
     inkscape:window-width="1280"
     inkscape:window-height="750"
     id="namedview4"
     showgrid="false"
     inkscape:zoom="2.5371819"
     inkscape:cx="191.66565"
     inkscape:cy="30.344196"
     inkscape:window-x="-8"
     inkscape:window-y="-8"
     inkscape:window-maximized="1"
     inkscape:current-layer="g12" /><g
     id="g12"
     inkscape:groupmode="layer"
     inkscape:label="finalbhartilogo"
     transform="matrix(1.25,0,0,-1.25,-369.12601,504.33953)"><g
       id="g14"
       transform="matrix(0.08945741,0,0,0.08945741,186.49186,207.64569)"><g
         id="g16"><g
           id="g18"
           clip-path="url(#clipPath20)"><path
             d="m 1230.42,1378.4 120.508,0 0,791.891 -120.508,0 0,-791.891 z"
             style="fill:#2f97da;fill-opacity:1;fill-rule:nonzero;stroke:none"
             id="path24" /><path
             d="m 1814.32,1378.4 120.504,0 0,791.891 -120.504,0 0,-791.891 z"
             style="fill:#2f97da;fill-opacity:1;fill-rule:nonzero;stroke:none"
             id="path26" /><path
             d="m 2894.35,1378.4 120.543,0 0,492.582 -120.543,0 0,-492.582 z"
             style="fill:#2f97da;fill-opacity:1;fill-rule:nonzero;stroke:none"
             id="path28" /><path
             d="m 3594.13,1378.4 120.512,0 0,492.582 -120.512,0 0,-492.582 z"
             style="fill:#2f97da;fill-opacity:1;fill-rule:nonzero;stroke:none"
             id="path30" /><path
             d="m 1386.8,1831.82 c 0,0 142.75,100.89 265.13,6.5 9.28,-7.16 42.07,-37.94 55.12,-77.53 16.16,-42.94 30.52,-111.8 13.88,-206.11 -30.06,-170.5 -148.08,-193.48 -231.41,-177.34 -83.36,16.11 -104.14,47.59 -104.14,47.59 0,0 67.92,-7.72 128,11.51 60.27,19.24 73.35,49.97 83.41,112.86 10.01,62.95 8.44,199.59 -32.49,241.08 -40.84,41.44 -173.57,36.07 -173.57,36.07 0,0 -7.71,3.1 -3.93,5.37"
             style="fill:#2f97da;fill-opacity:1;fill-rule:nonzero;stroke:none"
             id="path32" /><path
             d="m 1972.46,1834.14 c 0,0 132.06,90.58 255.42,14.59 40.87,-25.37 55.54,-92.09 56.23,-141.99 l 0.87,-327.09 -121.17,-1.54 -0.76,342.36 c 0,0 0.76,86.09 -73.24,100.63 -74.14,14.61 -116.6,6.9 -116.6,6.9 0,0 -3.82,3.82 -0.75,6.14"
             style="fill:#2f97da;fill-opacity:1;fill-rule:nonzero;stroke:none"
             id="path34" /><path
             d="m 2440.14,1831.89 c 0,0 147.18,88.27 280.41,16.84 49.45,-30.89 60.29,-92.09 61.15,-141.99 l 0.87,-327.09 -121.12,-1.54 -0.85,342.36 c 0,0 -1.14,86.41 -90.05,100.63 -80.67,12.89 -129.6,4.71 -129.6,4.71 0,0 -4.22,3.74 -0.81,6.08"
             style="fill:#2f97da;fill-opacity:1;fill-rule:nonzero;stroke:none"
             id="path36" /><path
             d="m 3036.96,1765.93 c 0,0 40.46,107.52 152.25,112.39 l 0,-112.39 -152.25,0"
             style="fill:#2f97da;fill-opacity:1;fill-rule:nonzero;stroke:none"
             id="path38" /><path
             d="m 3379.07,2011.61 0,-140.7 135.39,0 0,-53.14 -136.67,0 0,-304.6 c 0,0 -2.7,-84.94 70.69,-79.69 73.34,5.33 71.33,-1.95 71.33,-1.95 0,0 1.73,-5.47 -3.98,-10.65 -4.26,-1.78 -65.46,-65.78 -170.31,-40.2 -4.45,1.17 -46.43,13.88 -65.4,42.47 -22.75,34.35 -22.75,85.57 -23.11,87.32 -0.65,3.36 0,440.73 0,440.73 l 106.76,60.41 15.3,0"
             style="fill:#2f97da;fill-opacity:1;fill-rule:nonzero;stroke:none"
             id="path40" /><path
             d="m 2515.13,1612.25 c 4.89,4.96 16.17,10.2 17.72,10.9 18.45,7.25 45.79,12.06 82.99,7.11 0,0 16.96,0 5.58,7.99 -11.29,7.96 -36.26,30.93 -102.06,37.5 -65.68,6.6 -151.61,-46.44 -153.71,-126.45 -0.74,-30.91 3.51,-62.59 14.16,-90.41 16.94,-44.07 50.07,-78.16 104.89,-82.14 89.4,-6.58 138.75,32.57 139.01,38.14 0.41,5.66 -3.57,5.99 -6.27,5.3 -2.67,-0.56 -103.99,-12.89 -121,44.86 -11.11,37.65 -9.36,81.02 -3.49,109.25 2.22,10.88 11.46,27.47 22.18,37.95"
             style="fill:#2f97da;fill-opacity:1;fill-rule:nonzero;stroke:none"
             id="path42" /><path
             d="m 3593.32,2174.94 122.18,0 -121.07,-137.89 -1.11,137.89"
             style="fill:#2f97da;fill-opacity:1;fill-rule:nonzero;stroke:none"
             id="path44" /><path
             d="m 3833.18,2090.26 0,-214.84 -188.62,215.38 188.62,-0.54"
             style="fill:#fab41d;fill-opacity:1;fill-rule:nonzero;stroke:none"
             id="path46" /></g></g></g></g></svg>